<svg width="32" height="32" viewBox="0 0 32 32" fill="none" xmlns="http://www.w3.org/2000/svg">
<g clip-path="url(#clip0_961_6)">
<circle cx="16" cy="16" r="16" fill="url(#paint0_radial_961_6)"/>
<path d="M14.5909 25.4091C13.4848 25.4091 12.4811 25.2008 11.5795 24.7841C10.678 24.3598 9.96212 23.75 9.43182 22.9545C8.90152 22.1515 8.63636 21.1818 8.63636 20.0455C8.63636 19.0455 8.83333 18.2348 9.22727 17.6136C9.62121 16.9848 10.1477 16.4924 10.8068 16.1364C11.4659 15.7803 12.1932 15.5152 12.9886 15.3409C13.7917 15.1591 14.5985 15.0152 15.4091 14.9091C16.4697 14.7727 17.3295 14.6705 17.9886 14.6023C18.6553 14.5265 19.1402 14.4015 19.4432 14.2273C19.7538 14.053 19.9091 13.75 19.9091 13.3182V13.2273C19.9091 12.1061 19.6023 11.2348 18.9886 10.6136C18.3826 9.99242 17.4621 9.68182 16.2273 9.68182C14.947 9.68182 13.9432 9.96212 13.2159 10.5227C12.4886 11.0833 11.9773 11.6818 11.6818 12.3182L9.13636 11.4091C9.59091 10.3485 10.197 9.52273 10.9545 8.93182C11.7197 8.33333 12.553 7.91667 13.4545 7.68182C14.3636 7.43939 15.2576 7.31818 16.1364 7.31818C16.697 7.31818 17.3409 7.38636 18.0682 7.52273C18.803 7.65151 19.5114 7.92045 20.1932 8.32954C20.8826 8.73864 21.4545 9.35606 21.9091 10.1818C22.3636 11.0076 22.5909 12.1136 22.5909 13.5V25H19.9091V22.6364H19.7727C19.5909 23.0152 19.2879 23.4205 18.8636 23.8523C18.4394 24.2841 17.875 24.6515 17.1705 24.9545C16.4659 25.2576 15.6061 25.4091 14.5909 25.4091ZM15 23C16.0606 23 16.9545 22.7917 17.6818 22.375C18.4167 21.9583 18.9697 21.4205 19.3409 20.7614C19.7197 20.1023 19.9091 19.4091 19.9091 18.6818V16.2273C19.7955 16.3636 19.5455 16.4886 19.1591 16.6023C18.7803 16.7083 18.3409 16.803 17.8409 16.8864C17.3485 16.9621 16.8674 17.0303 16.3977 17.0909C15.9356 17.1439 15.5606 17.1894 15.2727 17.2273C14.5758 17.3182 13.9242 17.4659 13.3182 17.6705C12.7197 17.8674 12.2348 18.1667 11.8636 18.5682C11.5 18.9621 11.3182 19.5 11.3182 20.1818C11.3182 21.1136 11.6629 21.8182 12.3523 22.2955C13.0492 22.7652 13.9318 23 15 23Z" fill="white"/>
</g>
<defs>
<radialGradient id="paint0_radial_961_6" cx="0" cy="0" r="1" gradientUnits="userSpaceOnUse" gradientTransform="translate(8.88889 7.7037) rotate(59.144) scale(27.0079)">
<stop stop-color="#646464"/>
<stop offset="0.0001" stop-color="#646464"/>
<stop offset="0.604593" stop-color="#292929"/>
<stop offset="0.796202" stop-color="#0F0F0F"/>
<stop offset="0.932292" stop-color="#171717"/>
<stop offset="1" stop-color="#1B1B1B"/>
</radialGradient>
<clipPath id="clip0_961_6">
<rect width="32" height="32" fill="white"/>
</clipPath>
</defs>
</svg>
